<?xml version="1.0" ?><svg id="Layer_1" style="enable-background:new 0 0 32 32;" version="1.1" viewBox="0 0 32 32" xml:space="preserve" xmlns="http://www.w3.org/2000/svg" xmlns:xlink="http://www.w3.org/1999/xlink"><path d="M28.059,9.938c-0.683-0.682-1.515-1.168-2.443-1.431l1.445-1.446c0.585-0.585,0.585-1.536,0-2.121  c-0.584-0.585-1.537-0.585-2.121,0l-1.447,1.447c-0.264-0.932-0.749-1.765-1.432-2.447C21.777,3.656,21.401,3.5,21.001,3.5H21  c-0.4,0-0.776,0.157-1.06,0.44c-0.283,0.284-0.439,0.661-0.438,1.062c0,0.4,0.156,0.777,0.439,1.061  c1.067,1.068,1.067,2.807-0.002,3.877l-2,2c-0.585,0.585-0.585,1.536,0,2.121C18.223,14.344,18.6,14.5,19,14.5  s0.777-0.156,1.061-0.439l2.002-2.002c1.031-1.031,2.844-1.031,3.877,0.002c0.567,0.567,1.555,0.565,2.12,0  c0.283-0.283,0.439-0.661,0.438-1.062C28.498,10.598,28.342,10.221,28.059,9.938z" style="fill:#7CB552;"/><g><path d="M21.001,4c0.255,0,0.511,0.098,0.706,0.293c0.87,0.87,1.347,1.973,1.477,3.109l2.109-2.109C25.488,5.098,25.744,5,26,5   s0.512,0.098,0.707,0.293c0.391,0.391,0.391,1.023,0,1.414l-2.108,2.108c1.171,0.134,2.26,0.63,3.106,1.476   c0.391,0.391,0.392,1.025,0.001,1.415C27.511,11.902,27.255,12,26.999,12s-0.511-0.097-0.706-0.292   c-0.614-0.614-1.454-0.92-2.293-0.92s-1.678,0.306-2.291,0.918l-2.002,2.002C19.512,13.902,19.256,14,19,14   s-0.512-0.098-0.707-0.293c-0.391-0.391-0.391-1.023,0-1.414l2-2l0.002-0.002c1.263-1.263,1.263-3.319,0-4.582   c-0.391-0.391-0.392-1.025-0.001-1.415C20.489,4.098,20.745,4,21.001,4 M21.001,2c-0.802,0-1.556,0.313-2.123,0.881   c-0.565,0.564-0.877,1.319-0.877,2.122c0.001,0.801,0.313,1.554,0.879,2.12c0.483,0.483,0.483,1.27,0,1.754l-2.002,2.002   C16.312,11.445,16,12.199,16,13c0,0.801,0.312,1.555,0.879,2.121C17.445,15.688,18.199,16,19,16s1.555-0.312,2.121-0.879   l2.002-2.002c0.211-0.211,0.531-0.332,0.876-0.332c0.346,0,0.667,0.122,0.88,0.335C25.445,13.688,26.198,14,26.999,14   c0.802,0,1.556-0.313,2.123-0.881c0.565-0.564,0.877-1.319,0.876-2.122c-0.001-0.801-0.313-1.554-0.879-2.12   c-0.297-0.297-0.616-0.564-0.954-0.801c1.125-1.173,1.11-3.043-0.044-4.197C27.555,3.312,26.801,3,26,3   c-0.78,0-1.515,0.296-2.077,0.835c-0.237-0.339-0.505-0.659-0.802-0.956C22.555,2.312,21.802,2,21.001,2L21.001,2z"/></g><path d="M22.846,20.24C21.184,21.903,4,28,4,28s5.543-16.629,7.76-18.846s5.543-1.109,8.869,2.217  S24.509,18.577,22.846,20.24z" style="fill:#FF9E4F;"/><line style="fill:none;stroke:#DE6F14;stroke-width:2;stroke-linecap:round;stroke-miterlimit:10;" x1="16" x2="18.5" y1="20" y2="22.5"/><line style="fill:none;stroke:#DE6F14;stroke-width:2;stroke-linecap:round;stroke-miterlimit:10;" x1="9" x2="9.5" y1="25" y2="25.5"/><line style="fill:none;stroke:#DE6F14;stroke-width:2;stroke-linecap:round;stroke-miterlimit:10;" x1="11" x2="14" y1="11" y2="14"/><line style="fill:none;stroke:#DE6F14;stroke-width:2;stroke-linecap:round;stroke-miterlimit:10;" x1="8" x2="10" y1="18" y2="20"/><path d="M22.846,20.24  C20.629,22.457,4,28,4,28s5.543-16.629,7.76-18.846s5.543-1.109,8.869,2.217S25.064,18.022,22.846,20.24z" style="fill:none;stroke:#000000;stroke-width:2;stroke-linejoin:round;stroke-miterlimit:10;"/></svg>